<svg width="160" height="48" viewBox="0 0 160 48" fill="none" xmlns="http://www.w3.org/2000/svg">
<g clip-path="url(#clip0_575_2)">
<path d="M151.795 0H8.20513C3.67356 0 0 3.73745 0 8.34783V39.6522C0 44.2626 3.67356 48 8.20513 48H151.795C156.326 48 160 44.2626 160 39.6522V8.34783C160 3.73745 156.326 0 151.795 0Z" fill="#F6F6F6"/>
<path d="M17.0256 27.3183C17.0256 26.3583 17.3675 25.5931 18.0513 25.0226C18.7487 24.4522 19.6649 24.167 20.8 24.167H23.4872V23.1861C23.4872 22.7409 23.3436 22.3931 23.0564 22.1426C22.7692 21.8783 22.3795 21.7461 21.8872 21.7461C21.3128 21.7461 20.8889 21.9061 20.6154 22.2261C20.3418 22.5462 20.1915 22.9287 20.1641 23.374H17.4154C17.4428 22.8452 17.5658 22.3513 17.7846 21.8922C18.0171 21.4331 18.3316 21.0366 18.7282 20.7026C19.1248 20.3687 19.5966 20.1044 20.1436 19.9096C20.6906 19.7148 21.3059 19.6174 21.9897 19.6174C22.6461 19.6174 23.2479 19.7079 23.7949 19.8887C24.3418 20.0696 24.8136 20.327 25.2102 20.6609C25.6069 20.9948 25.9146 21.4052 26.1333 21.8922C26.3658 22.3652 26.482 22.9009 26.482 23.4992V30.2609H23.7949L23.5897 28.8C23.412 29.287 23.029 29.6904 22.441 30.0105C21.853 30.3165 21.1897 30.4696 20.4513 30.4696C19.412 30.4696 18.5777 30.1774 17.9487 29.5931C17.3333 28.9949 17.0256 28.2366 17.0256 27.3183ZM20.1026 27.2348C20.1026 27.5687 20.212 27.84 20.4308 28.0487C20.6495 28.2574 20.971 28.3618 21.3949 28.3618C22.0376 28.3618 22.5436 28.1392 22.9128 27.694C23.282 27.2348 23.4735 26.6713 23.4872 26.0035H21.4769C21.0393 26.0035 20.6974 26.1217 20.4513 26.3583C20.2188 26.5809 20.1026 26.8731 20.1026 27.2348ZM29.3254 34.4348V19.8261H32.0126L32.2177 20.8487C32.669 20.4175 33.1546 20.1044 33.6741 19.9096C34.1938 19.7148 34.734 19.6174 35.2947 19.6174C35.9648 19.6174 36.5733 19.7496 37.1203 20.014C37.6674 20.2644 38.1392 20.6262 38.5357 21.0992C38.9323 21.5722 39.24 22.1357 39.4588 22.7896C39.6776 23.4296 39.787 24.1461 39.787 24.9392C39.787 25.6905 39.6844 26.4 39.4793 27.0679C39.2879 27.7357 38.9938 28.32 38.5972 28.8209C38.2144 29.3218 37.7426 29.7253 37.1818 30.0313C36.6212 30.3235 35.9716 30.4696 35.2331 30.4696C34.6315 30.4696 34.0776 30.3653 33.5716 30.1566C33.0656 29.934 32.6485 29.5861 32.3203 29.1131V34.4348H29.3254ZM34.3716 27.8609C35.0964 27.8609 35.6639 27.6105 36.0741 27.1096C36.4981 26.6087 36.71 25.92 36.71 25.0435C36.71 24.167 36.5049 23.4783 36.0947 22.9774C35.6981 22.4766 35.1511 22.2261 34.4536 22.2261C33.7426 22.2261 33.1751 22.4836 32.7511 22.9983C32.3272 23.5131 32.1152 24.2087 32.1152 25.0853C32.1152 25.8922 32.3067 26.56 32.6895 27.0887C33.0725 27.6035 33.6331 27.8609 34.3716 27.8609ZM41.8855 19.8261H44.8804V25.1061L48.8599 21.6209V19.8261H51.8548V30.2609H48.8599V25.2105L46.0291 27.694C45.6052 28.0696 45.3044 28.4383 45.1266 28.8C44.9625 29.1618 44.8804 29.6487 44.8804 30.2609H41.8855V19.8261ZM62.6832 19.8261V22.6227H59.6062V30.2609H56.6114V22.6227H53.5345V19.8261H62.6832ZM64.3615 30.2609V19.8261H69.3256L70.4333 23.4574C70.5838 23.9862 70.7069 24.5426 70.8026 25.127C70.912 25.6975 71.0008 26.2192 71.0692 26.6922H71.1513C71.2197 26.2192 71.3017 25.6975 71.3974 25.127C71.4931 24.5426 71.6231 23.9862 71.7872 23.4574L72.8949 19.8261H77.859V30.2609H74.8641V25.9826C74.8641 25.3983 74.871 24.7792 74.8846 24.1253C74.8982 23.4574 74.9393 22.8313 75.0077 22.247H74.8846C74.7615 22.8313 74.6043 23.4436 74.4128 24.0835C74.2351 24.7096 74.0505 25.3009 73.859 25.8574L72.7308 29.3009H69.3667L68.2385 25.8574C68.047 25.287 67.8624 24.6887 67.6846 24.0626C67.5069 23.4227 67.3495 22.8035 67.2128 22.2053H67.0897C67.1581 22.8035 67.1992 23.4366 67.2128 24.1044C67.2265 24.7583 67.2333 25.3844 67.2333 25.9826V30.2609H64.3615ZM79.331 25.0226C79.331 24.2017 79.454 23.4574 79.7002 22.7896C79.96 22.1218 80.3224 21.5583 80.7874 21.0992C81.2523 20.6262 81.8061 20.2644 82.4489 20.014C83.0916 19.7496 83.8028 19.6174 84.5822 19.6174C85.3343 19.6174 86.0113 19.7357 86.613 19.9722C87.2147 20.2088 87.7275 20.5427 88.1515 20.974C88.589 21.4052 88.9241 21.927 89.1566 22.5392C89.389 23.1374 89.5053 23.8122 89.5053 24.5635C89.5053 24.9113 89.4779 25.2731 89.4233 25.6487H82.2438C82.3531 26.3583 82.613 26.9218 83.0233 27.3392C83.4472 27.7566 83.9805 27.9653 84.6233 27.9653C85.1292 27.9653 85.56 27.833 85.9156 27.5687C86.2711 27.3044 86.4899 26.9565 86.572 26.5253H89.5669C89.4985 27.1096 89.3207 27.6452 89.0335 28.1322C88.76 28.6192 88.4044 29.0366 87.9669 29.3844C87.5292 29.7322 87.0164 30.0035 86.4284 30.1983C85.854 30.3791 85.2318 30.4696 84.5617 30.4696C83.7685 30.4696 83.0506 30.3374 82.4079 30.0731C81.7651 29.8088 81.2113 29.44 80.7463 28.967C80.2951 28.48 79.9464 27.9027 79.7002 27.2348C79.454 26.567 79.331 25.8296 79.331 25.0226ZM82.4284 23.5618H86.5515C86.4967 23.0748 86.2916 22.6783 85.9361 22.3722C85.5941 22.0662 85.1566 21.9131 84.6233 21.9131C84.1036 21.9131 83.6523 22.0592 83.2694 22.3513C82.9002 22.6435 82.6198 23.047 82.4284 23.5618ZM100.143 19.8261V22.6227H97.0661V30.2609H94.0713V22.6227H90.9943V19.8261H100.143ZM101.821 19.8261H104.816V25.1061L108.796 21.6209V19.8261H111.791V30.2609H108.796V25.2105L105.965 27.694C105.542 28.0696 105.24 28.4383 105.063 28.8C104.898 29.1618 104.816 29.6487 104.816 30.2609H101.821V19.8261ZM114.743 30.2609V19.8261H117.737V23.4574H118.373L121.143 19.8261H124.63V19.9096L121.06 24.4383L121.594 25.3357C121.744 25.5861 121.902 25.8436 122.066 26.1079C122.243 26.3583 122.435 26.5949 122.64 26.8174C122.858 27.04 123.097 27.2209 123.358 27.36C123.617 27.4991 123.905 27.5687 124.219 27.5687C124.328 27.5687 124.466 27.5549 124.63 27.527V30.3235C124.425 30.3791 124.219 30.414 124.014 30.4279C123.823 30.4557 123.638 30.4696 123.461 30.4696C122.872 30.4696 122.353 30.3583 121.902 30.1357C121.464 29.9131 121.061 29.614 120.691 29.2383C120.335 28.8627 120.014 28.4383 119.727 27.9653C119.44 27.4783 119.153 26.9774 118.866 26.4627L118.702 26.1705H117.737V30.2609H114.743ZM125.859 27.3183C125.859 26.3583 126.202 25.5931 126.885 25.0226C127.583 24.4522 128.499 24.167 129.634 24.167H132.321V23.1861C132.321 22.7409 132.177 22.3931 131.89 22.1426C131.603 21.8783 131.213 21.7461 130.721 21.7461C130.147 21.7461 129.723 21.9061 129.449 22.2261C129.176 22.5462 129.026 22.9287 128.998 23.374H126.249C126.277 22.8452 126.4 22.3513 126.618 21.8922C126.851 21.4331 127.166 21.0366 127.562 20.7026C127.959 20.3687 128.431 20.1044 128.977 19.9096C129.525 19.7148 130.141 19.6174 130.824 19.6174C131.48 19.6174 132.082 19.7079 132.629 19.8887C133.176 20.0696 133.648 20.327 134.044 20.6609C134.441 20.9948 134.749 21.4052 134.967 21.8922C135.2 22.3652 135.316 22.9009 135.316 23.4992V30.2609H132.629L132.424 28.8C132.246 29.287 131.864 29.6904 131.275 30.0105C130.687 30.3165 130.024 30.4696 129.285 30.4696C128.246 30.4696 127.412 30.1774 126.783 29.5931C126.167 28.9949 125.859 28.2366 125.859 27.3183ZM128.936 27.2348C128.936 27.5687 129.046 27.84 129.265 28.0487C129.484 28.2574 129.805 28.3618 130.229 28.3618C130.872 28.3618 131.377 28.1392 131.747 27.694C132.116 27.2348 132.308 26.6713 132.321 26.0035H130.311C129.874 26.0035 129.531 26.1217 129.285 26.3583C129.053 26.5809 128.936 26.8731 128.936 27.2348ZM137.914 28.654C137.914 28.0835 138.071 27.6383 138.386 27.3183C138.699 26.9983 139.137 26.8383 139.698 26.8383C140.258 26.8383 140.696 26.9983 141.011 27.3183C141.325 27.6383 141.483 28.0835 141.483 28.654C141.483 29.2244 141.325 29.6696 141.011 29.9896C140.696 30.3096 140.258 30.4696 139.698 30.4696C139.137 30.4696 138.699 30.3096 138.386 29.9896C138.071 29.6696 137.914 29.2244 137.914 28.654Z" fill="#171717"/>
</g>
<defs>
<clipPath id="clip0_575_2">
<rect width="160" height="48" fill="white"/>
</clipPath>
</defs>
</svg>
